<svg width="28" height="28" viewBox="0 0 28 28" fill="none" xmlns="http://www.w3.org/2000/svg">
<g filter="url(#filter0_d)">
<path d="M5 1L5.44721 0.105573C5.13723 -0.0494214 4.76909 -0.0328574 4.47427 0.149349C4.17945 0.331556 4 0.653422 4 1L5 1ZM23 1H24C24 0.653422 23.8205 0.331556 23.5257 0.149349C23.2309 -0.0328574 22.8628 -0.0494214 22.5528 0.105573L23 1ZM23 14.5L23.4472 15.3944C23.786 15.225 24 14.8788 24 14.5H23ZM14 19L13.5528 19.8944C13.8343 20.0352 14.1657 20.0352 14.4472 19.8944L14 19ZM5 14.5H4C4 14.8788 4.214 15.225 4.55279 15.3944L5 14.5ZM4.55279 1.89443L13.5528 6.39443L14.4472 4.60557L5.44721 0.105573L4.55279 1.89443ZM14.4472 6.39443L23.4472 1.89443L22.5528 0.105573L13.5528 4.60557L14.4472 6.39443ZM22 1V14.5H24V1H22ZM22.5528 13.6056L13.5528 18.1056L14.4472 19.8944L23.4472 15.3944L22.5528 13.6056ZM14.4472 18.1056L5.44721 13.6056L4.55279 15.3944L13.5528 19.8944L14.4472 18.1056ZM6 14.5V1H4V14.5H6ZM13 5.5V19H15V5.5H13Z" fill="#B4BEF0"/>
</g>
<defs>
<filter id="filter0_d" x="0" y="0" width="28" height="28" filterUnits="userSpaceOnUse" color-interpolation-filters="sRGB">
<feFlood flood-opacity="0" result="BackgroundImageFix"/>
<feColorMatrix in="SourceAlpha" type="matrix" values="0 0 0 0 0 0 0 0 0 0 0 0 0 0 0 0 0 0 127 0"/>
<feOffset dy="4"/>
<feGaussianBlur stdDeviation="2"/>
<feColorMatrix type="matrix" values="0 0 0 0 0 0 0 0 0 0 0 0 0 0 0 0 0 0 0.25 0"/>
<feBlend mode="normal" in2="BackgroundImageFix" result="effect1_dropShadow"/>
<feBlend mode="normal" in="SourceGraphic" in2="effect1_dropShadow" result="shape"/>
</filter>
</defs>
</svg>
