<svg width="28" height="28" viewBox="0 0 28 28" fill="none" xmlns="http://www.w3.org/2000/svg">
<g filter="url(#filter0_d)">
<path fill-rule="evenodd" clip-rule="evenodd" d="M9.29289 0.292893C9.48043 0.105357 9.73478 0 10 0H19C19.5523 0 20 0.447715 20 1V7.49816C22.349 8.47772 24 10.796 24 13.5C24 17.0899 21.0899 20 17.5 20C15.6566 20 13.9925 19.2327 12.8096 18H5C4.44772 18 4 17.5523 4 17V6C4 5.73478 4.10536 5.48043 4.29289 5.29289L9.29289 0.292893ZM18 2V7.01894C17.835 7.00639 17.6682 7 17.5 7C13.9101 7 11 9.91015 11 13.5C11 14.3859 11.1772 15.2304 11.4982 16H6V7H10C10.5523 7 11 6.55228 11 6V2H18ZM7.41421 5H9V3.41421L7.41421 5ZM17.5 9C15.0147 9 13 11.0147 13 13.5C13 15.9853 15.0147 18 17.5 18C19.9853 18 22 15.9853 22 13.5C22 11.0147 19.9853 9 17.5 9ZM17.7593 15.6508L20.7593 12.1508L19.2407 10.8492L16.8915 13.59L15.6508 12.5265L14.3492 14.045L16.3492 15.7593L17.1085 16.41L17.7593 15.6508Z" fill="#B4BEF0"/>
</g>
<defs>
<filter id="filter0_d" x="0" y="0" width="28" height="28" filterUnits="userSpaceOnUse" color-interpolation-filters="sRGB">
<feFlood flood-opacity="0" result="BackgroundImageFix"/>
<feColorMatrix in="SourceAlpha" type="matrix" values="0 0 0 0 0 0 0 0 0 0 0 0 0 0 0 0 0 0 127 0"/>
<feOffset dy="4"/>
<feGaussianBlur stdDeviation="2"/>
<feColorMatrix type="matrix" values="0 0 0 0 0 0 0 0 0 0 0 0 0 0 0 0 0 0 0.25 0"/>
<feBlend mode="normal" in2="BackgroundImageFix" result="effect1_dropShadow"/>
<feBlend mode="normal" in="SourceGraphic" in2="effect1_dropShadow" result="shape"/>
</filter>
</defs>
</svg>
