<svg width="28" height="28" viewBox="0 0 28 28" fill="none" xmlns="http://www.w3.org/2000/svg">
<g filter="url(#filter0_d)">
<path d="M16 1H17C17 0.447715 16.5522 0 16 0V1ZM12 1V0C11.4477 0 11 0.447715 11 1L12 1ZM16 3.28988H15C15 3.7323 15.2907 4.12213 15.7147 4.24833L16 3.28988ZM18.8093 4.91373L18.1222 5.64022C18.4435 5.94416 18.9263 6.00091 19.3093 5.77976L18.8093 4.91373ZM20.7941 3.7678L21.6602 3.2678C21.384 2.78951 20.7724 2.62564 20.2941 2.90178L20.7941 3.7678ZM22.7941 7.2319L23.2941 8.09793C23.5238 7.96532 23.6914 7.7469 23.7601 7.49072C23.8287 7.23454 23.7928 6.96159 23.6602 6.7319L22.7941 7.2319ZM20.8108 8.37697L20.3108 7.51094C19.9281 7.73192 19.7358 8.17795 19.8379 8.60796L20.8108 8.37697ZM20.8109 11.6229L19.8379 11.3919C19.7358 11.8219 19.9281 12.2679 20.3109 12.4889L20.8109 11.6229ZM22.7942 12.7679L23.6602 13.2679C23.7928 13.0383 23.8287 12.7653 23.7601 12.5091C23.6914 12.253 23.5238 12.0345 23.2942 11.9019L22.7942 12.7679ZM20.7942 16.2321L20.2942 17.0981C20.5238 17.2307 20.7968 17.2666 21.053 17.198C21.3092 17.1293 21.5276 16.9617 21.6602 16.7321L20.7942 16.2321ZM18.8094 15.0862L19.3094 14.2201C18.9264 13.999 18.4436 14.0558 18.1222 14.3597L18.8094 15.0862ZM16 16.7101L15.7147 15.7517C15.2907 15.8779 15 16.2677 15 16.7101H16ZM16 19V20C16.5522 20 17 19.5523 17 19H16ZM12 19H11C11 19.5523 11.4477 20 12 20V19ZM12 16.7101H13C13 16.2677 12.7092 15.8779 12.2852 15.7517L12 16.7101ZM9.19036 15.0861L9.87757 14.3596C9.55624 14.0556 9.07341 13.9989 8.69036 14.22L9.19036 15.0861ZM7.20569 16.2319L6.33966 16.7319C6.61581 17.2102 7.2274 17.3741 7.70569 17.0979L7.20569 16.2319ZM5.20569 12.7678L4.70569 11.9018C4.476 12.0344 4.30841 12.2528 4.23976 12.509C4.17112 12.7652 4.20705 13.0381 4.33966 13.2678L5.20569 12.7678ZM7.18901 11.6227L7.68901 12.4888C8.07174 12.2678 8.26404 11.8218 8.16197 11.3918L7.18901 11.6227ZM7.18904 8.37713L8.162 8.6081C8.26408 8.1781 8.07178 7.73209 7.68904 7.51111L7.18904 8.37713ZM5.2057 7.23205L4.33967 6.73205C4.20706 6.96173 4.17113 7.23469 4.23977 7.49087C4.30841 7.74705 4.47601 7.96547 4.7057 8.09808L5.2057 7.23205ZM7.2057 3.76795L7.7057 2.90192C7.47601 2.76931 7.20306 2.73338 6.94688 2.80202C6.6907 2.87067 6.47228 3.03826 6.33967 3.26795L7.2057 3.76795ZM9.19046 4.91385L8.69046 5.77987C9.0735 6.00103 9.55633 5.94427 9.87765 5.64032L9.19046 4.91385ZM12 3.28988L12.2852 4.24833C12.7092 4.12213 13 3.7323 13 3.28988H12ZM16 0H12V2H16V0ZM17 3.28988V1H15V3.28988H17ZM19.4965 4.18724C18.5989 3.3382 17.5035 2.694 16.2852 2.33143L15.7147 4.24833C16.6258 4.51948 17.4474 5.00196 18.1222 5.64022L19.4965 4.18724ZM20.2941 2.90178L18.3093 4.04771L19.3093 5.77976L21.2941 4.63383L20.2941 2.90178ZM23.6602 6.7319L21.6602 3.2678L19.9281 4.2678L21.9281 7.7319L23.6602 6.7319ZM21.3108 9.243L23.2941 8.09793L22.2941 6.36588L20.3108 7.51094L21.3108 9.243ZM22 10C22 9.36293 21.9253 8.74199 21.7838 8.14598L19.8379 8.60796C19.9437 9.05372 20 9.51964 20 10H22ZM21.7838 11.8539C21.9253 11.2579 22 10.637 22 10H20C20 10.4803 19.9437 10.9462 19.8379 11.3919L21.7838 11.8539ZM23.2942 11.9019L21.3109 10.7569L20.3109 12.4889L22.2942 13.634L23.2942 11.9019ZM21.6602 16.7321L23.6602 13.2679L21.9281 12.2679L19.9281 15.7321L21.6602 16.7321ZM18.3094 15.9522L20.2942 17.0981L21.2942 15.366L19.3094 14.2201L18.3094 15.9522ZM16.2852 17.6686C17.5035 17.306 18.599 16.6617 19.4966 15.8126L18.1222 14.3597C17.4475 14.998 16.6258 15.4805 15.7147 15.7517L16.2852 17.6686ZM17 19V16.7101H15V19H17ZM12 20H16V18H12V20ZM11 16.7101V19H13V16.7101H11ZM8.50315 15.8125C9.4008 16.6617 10.4963 17.306 11.7147 17.6686L12.2852 15.7517C11.374 15.4805 10.5524 14.9979 9.87757 14.3596L8.50315 15.8125ZM7.70569 17.0979L9.69036 15.9521L8.69036 14.22L6.70569 15.3659L7.70569 17.0979ZM4.33966 13.2678L6.33966 16.7319L8.07171 15.7319L6.07171 12.2678L4.33966 13.2678ZM6.68901 10.7567L4.70569 11.9018L5.70569 13.6338L7.68901 12.4888L6.68901 10.7567ZM5.99996 10C5.99996 10.637 6.07459 11.2578 6.21604 11.8537L8.16197 11.3918C8.05619 10.9461 7.99996 10.4803 7.99996 10H5.99996ZM6.21608 8.14617C6.07461 8.74213 5.99996 9.363 5.99996 10H7.99996C7.99996 9.51969 8.05619 9.05382 8.162 8.6081L6.21608 8.14617ZM4.7057 8.09808L6.68904 9.24316L7.68904 7.51111L5.7057 6.36602L4.7057 8.09808ZM6.33967 3.26795L4.33967 6.73205L6.07172 7.73205L8.07172 4.26795L6.33967 3.26795ZM9.69046 4.04782L7.7057 2.90192L6.7057 4.63397L8.69046 5.77987L9.69046 4.04782ZM11.7147 2.33143C10.4964 2.69402 9.4009 3.33827 8.50326 4.18738L9.87765 5.64032C10.5524 5.00201 11.3741 4.5195 12.2852 4.24833L11.7147 2.33143ZM11 1V3.28988H13V1H11ZM16 10C16 11.1046 15.1046 12 14 12V14C16.2091 14 18 12.2091 18 10H16ZM14 8C15.1046 8 16 8.89543 16 10H18C18 7.79086 16.2091 6 14 6V8ZM12 10C12 8.89543 12.8954 8 14 8V6C11.7909 6 10 7.79086 10 10H12ZM14 12C12.8954 12 12 11.1046 12 10H10C10 12.2091 11.7909 14 14 14V12Z" fill="#B4BEF0"/>
</g>
<defs>
<filter id="filter0_d" x="0.205688" y="0" width="27.5885" height="28" filterUnits="userSpaceOnUse" color-interpolation-filters="sRGB">
<feFlood flood-opacity="0" result="BackgroundImageFix"/>
<feColorMatrix in="SourceAlpha" type="matrix" values="0 0 0 0 0 0 0 0 0 0 0 0 0 0 0 0 0 0 127 0"/>
<feOffset dy="4"/>
<feGaussianBlur stdDeviation="2"/>
<feColorMatrix type="matrix" values="0 0 0 0 0 0 0 0 0 0 0 0 0 0 0 0 0 0 0.25 0"/>
<feBlend mode="normal" in2="BackgroundImageFix" result="effect1_dropShadow"/>
<feBlend mode="normal" in="SourceGraphic" in2="effect1_dropShadow" result="shape"/>
</filter>
</defs>
</svg>
